<svg width="24" height="14" viewBox="0 0 24 14" fill="none" xmlns="http://www.w3.org/2000/svg">
<path d="M11.6803 10.3901C11.2215 11.1112 10.7813 11.8167 9.79491 12.502C9.26728 12.8719 8.05284 13.5945 6.32663 13.5945C3.03323 13.5945 0.375 11.2001 0.375 6.99055C0.375 3.31152 2.87555 0.405273 6.39684 0.405273C7.82344 0.405273 9.09094 0.898445 10.0244 1.63827C10.8875 2.32499 11.2918 3.0119 11.6445 3.6284L9.17981 4.85995C9.00347 4.4556 8.79122 4.03265 8.24639 3.57529C7.64714 3.09927 7.0492 2.95879 6.53733 2.95879C4.53009 2.95879 3.47339 4.82559 3.47339 6.90309C3.47339 9.63299 4.86558 10.9879 6.53733 10.9879C8.15747 10.9879 8.80983 9.86094 9.23142 9.13982L11.6803 10.3901V10.3901ZM20.3144 0.792414H23.625L19.3108 13.2246H16.1422L11.881 0.792414H15.1916L17.7623 9.63304L20.3144 0.792414Z" fill="black"/>
</svg>
