<svg width="22" height="21" viewBox="0 0 22 21" fill="none" xmlns="http://www.w3.org/2000/svg">
<path d="M5.50164 20.7309H1.31534V7.24963H5.50164V20.7309ZM3.40596 5.41069C2.0675 5.41069 0.981445 4.30155 0.981445 2.96309C0.981445 2.32007 1.23689 1.70338 1.69157 1.2487C2.14626 0.794014 2.76294 0.538574 3.40596 0.538574C4.04899 0.538574 4.66567 0.794014 5.12036 1.2487C5.57504 1.70338 5.83048 2.32007 5.83048 2.96309C5.83048 4.30155 4.74443 5.41069 3.40596 5.41069ZM21.1694 20.7309H16.9925V14.1684C16.9925 12.6042 16.9608 10.5987 14.8161 10.5987C12.6396 10.5987 12.3057 12.2977 12.3057 14.0559V20.7309H8.12375V7.24963H12.1384V9.08857H12.1968C12.7557 8.0292 14.1209 6.91141 16.1574 6.91141C20.3942 6.91141 21.173 9.70155 21.173 13.3254V20.7309H21.1694Z" fill="black"/>
</svg>
