<svg width="21" height="21" viewBox="0 0 21 21" fill="none" xmlns="http://www.w3.org/2000/svg">
<path d="M10.5 0.259934C4.69941 0.259934 0 4.96328 0 10.7599C0 15.4016 3.00825 19.3358 7.17741 20.7238C7.70438 20.8229 7.89469 20.498 7.89469 20.2172C7.89469 19.9678 7.88878 19.3082 7.88484 18.4328C4.96256 19.0654 4.347 17.0212 4.347 17.0212C3.86859 15.8111 3.17822 15.4862 3.17822 15.4862C2.22797 14.8372 3.25369 14.851 3.25369 14.851C4.30631 14.9225 4.86019 15.9305 4.86019 15.9305C5.79666 17.537 7.31719 17.0724 7.91897 16.802C8.01084 16.1254 8.2845 15.6602 8.58244 15.4009C6.25144 15.1378 3.80034 14.2354 3.80034 10.212C3.80034 9.06287 4.20722 8.12706 4.87987 7.39206C4.76372 7.1289 4.40803 6.05921 4.97241 4.61284C4.97241 4.61284 5.85113 4.33262 7.85991 5.68975C8.71559 5.45702 9.59814 5.33765 10.4849 5.33471C11.3774 5.34062 12.2692 5.45743 13.1099 5.68975C15.1069 4.33262 15.9849 4.61284 15.9849 4.61284C16.5487 6.05921 16.193 7.12825 16.0906 7.39206C16.7567 8.12706 17.1636 9.06353 17.1636 10.212C17.1636 14.2446 14.7092 15.1338 12.3756 15.3904C12.7404 15.7048 13.0823 16.3512 13.0823 17.3323C13.0823 18.7367 13.0692 19.868 13.0692 20.2099C13.0692 20.4829 13.253 20.8111 13.7937 20.7054C17.9937 19.3319 20.9987 15.3944 20.9987 10.7593C20.9987 4.96262 16.2993 0.259277 10.4987 0.259277L10.5 0.259934Z" fill="black"/>
</svg>
