<svg width="67" height="112" viewBox="0 0 67 112" fill="none" xmlns="http://www.w3.org/2000/svg">
<path d="M23.1072 100.148H21.3345C21.2663 99.7689 21.1394 99.4356 20.9538 99.1477C20.7682 98.8598 20.541 98.6155 20.272 98.4148C20.0031 98.214 19.7019 98.0625 19.3686 97.9602C19.0391 97.858 18.6887 97.8068 18.3175 97.8068C17.647 97.8068 17.0466 97.9754 16.5163 98.3125C15.9898 98.6496 15.5732 99.1439 15.2663 99.7955C14.9633 100.447 14.8118 101.242 14.8118 102.182C14.8118 103.129 14.9633 103.928 15.2663 104.58C15.5732 105.231 15.9917 105.723 16.522 106.057C17.0523 106.39 17.6489 106.557 18.3118 106.557C18.6792 106.557 19.0277 106.508 19.3572 106.409C19.6906 106.307 19.9917 106.157 20.2607 105.96C20.5296 105.763 20.7569 105.523 20.9425 105.239C21.1319 104.951 21.2625 104.621 21.3345 104.25L23.1072 104.256C23.0125 104.828 22.8288 105.354 22.5561 105.835C22.2872 106.312 21.9406 106.725 21.5163 107.074C21.0959 107.419 20.6148 107.686 20.0732 107.875C19.5315 108.064 18.9406 108.159 18.3004 108.159C17.2929 108.159 16.3951 107.92 15.6072 107.443C14.8194 106.962 14.1982 106.275 13.7436 105.381C13.2929 104.487 13.0675 103.42 13.0675 102.182C13.0675 100.939 13.2947 99.8731 13.7493 98.983C14.2038 98.089 14.825 97.4034 15.6129 96.9261C16.4008 96.4451 17.2966 96.2045 18.3004 96.2045C18.9179 96.2045 19.4936 96.2936 20.0277 96.4716C20.5656 96.6458 21.0485 96.9034 21.4766 97.2443C21.9046 97.5814 22.2588 97.9943 22.5391 98.483C22.8194 98.9678 23.0088 99.5227 23.1072 100.148ZM31.5547 99.4205C31.4941 98.8826 31.2441 98.4659 30.8047 98.1705C30.3653 97.8712 29.8123 97.7216 29.1456 97.7216C28.6683 97.7216 28.2554 97.7973 27.907 97.9489C27.5585 98.0966 27.2876 98.3011 27.0945 98.5625C26.9051 98.8201 26.8104 99.1136 26.8104 99.4432C26.8104 99.7197 26.8748 99.9583 27.0036 100.159C27.1361 100.36 27.3085 100.528 27.5206 100.665C27.7365 100.797 27.9676 100.909 28.2138 101C28.46 101.087 28.6967 101.159 28.924 101.216L30.0604 101.511C30.4316 101.602 30.8123 101.725 31.2024 101.881C31.5926 102.036 31.9543 102.241 32.2876 102.494C32.621 102.748 32.8899 103.062 33.0945 103.438C33.3028 103.812 33.407 104.261 33.407 104.784C33.407 105.443 33.2365 106.028 32.8956 106.54C32.5585 107.051 32.0679 107.455 31.424 107.75C30.7839 108.045 30.0092 108.193 29.1001 108.193C28.2289 108.193 27.4751 108.055 26.8388 107.778C26.2024 107.502 25.7043 107.11 25.3445 106.602C24.9846 106.091 24.7857 105.485 24.7479 104.784H26.5092C26.5433 105.205 26.6797 105.555 26.9183 105.835C27.1607 106.112 27.4695 106.318 27.8445 106.455C28.2232 106.587 28.638 106.653 29.0888 106.653C29.585 106.653 30.0263 106.576 30.4126 106.42C30.8028 106.261 31.1096 106.042 31.3331 105.761C31.5566 105.477 31.6683 105.146 31.6683 104.767C31.6683 104.422 31.5698 104.14 31.3729 103.92C31.1797 103.701 30.9164 103.519 30.5831 103.375C30.2536 103.231 29.8804 103.104 29.4638 102.994L28.0888 102.619C27.157 102.366 26.4183 101.992 25.8729 101.5C25.3312 101.008 25.0604 100.356 25.0604 99.5455C25.0604 98.875 25.2422 98.2898 25.6058 97.7898C25.9695 97.2898 26.4619 96.9015 27.0831 96.625C27.7043 96.3447 28.4051 96.2045 29.1854 96.2045C29.9732 96.2045 30.6683 96.3428 31.2706 96.6193C31.8767 96.8958 32.3539 97.2765 32.7024 97.7614C33.0509 98.2424 33.2327 98.7955 33.2479 99.4205H31.5547ZM41.8516 99.4205C41.791 98.8826 41.541 98.4659 41.1016 98.1705C40.6622 97.8712 40.1091 97.7216 39.4425 97.7216C38.9652 97.7216 38.5523 97.7973 38.2038 97.9489C37.8554 98.0966 37.5845 98.3011 37.3913 98.5625C37.2019 98.8201 37.1072 99.1136 37.1072 99.4432C37.1072 99.7197 37.1716 99.9583 37.3004 100.159C37.433 100.36 37.6054 100.528 37.8175 100.665C38.0334 100.797 38.2644 100.909 38.5107 101C38.7569 101.087 38.9936 101.159 39.2209 101.216L40.3572 101.511C40.7285 101.602 41.1091 101.725 41.4993 101.881C41.8894 102.036 42.2512 102.241 42.5845 102.494C42.9179 102.748 43.1868 103.062 43.3913 103.438C43.5997 103.812 43.7038 104.261 43.7038 104.784C43.7038 105.443 43.5334 106.028 43.1925 106.54C42.8554 107.051 42.3648 107.455 41.7209 107.75C41.0807 108.045 40.3061 108.193 39.397 108.193C38.5258 108.193 37.772 108.055 37.1357 107.778C36.4993 107.502 36.0012 107.11 35.6413 106.602C35.2815 106.091 35.0826 105.485 35.0447 104.784H36.8061C36.8402 105.205 36.9766 105.555 37.2152 105.835C37.4576 106.112 37.7663 106.318 38.1413 106.455C38.5201 106.587 38.9349 106.653 39.3857 106.653C39.8819 106.653 40.3232 106.576 40.7095 106.42C41.0997 106.261 41.4065 106.042 41.63 105.761C41.8535 105.477 41.9652 105.146 41.9652 104.767C41.9652 104.422 41.8667 104.14 41.6697 103.92C41.4766 103.701 41.2133 103.519 40.88 103.375C40.5504 103.231 40.1773 103.104 39.7607 102.994L38.3857 102.619C37.4538 102.366 36.7152 101.992 36.1697 101.5C35.6281 101.008 35.3572 100.356 35.3572 99.5455C35.3572 98.875 35.5391 98.2898 35.9027 97.7898C36.2663 97.2898 36.7588 96.9015 37.38 96.625C38.0012 96.3447 38.7019 96.2045 39.4822 96.2045C40.2701 96.2045 40.9652 96.3428 41.5675 96.6193C42.1735 96.8958 42.6508 97.2765 42.9993 97.7614C43.3478 98.2424 43.5296 98.7955 43.5447 99.4205H41.8516ZM49.6939 108.159C48.9136 108.159 48.2166 108.025 47.603 107.756C46.9931 107.487 46.5102 107.114 46.1541 106.636C45.8018 106.155 45.6125 105.598 45.5859 104.966H47.37C47.3928 105.311 47.5083 105.61 47.7166 105.864C47.9287 106.114 48.2053 106.307 48.5462 106.443C48.8871 106.58 49.2659 106.648 49.6825 106.648C50.1409 106.648 50.5462 106.568 50.8984 106.409C51.2545 106.25 51.5329 106.028 51.7337 105.744C51.9344 105.456 52.0348 105.125 52.0348 104.75C52.0348 104.36 51.9344 104.017 51.7337 103.722C51.5367 103.422 51.2469 103.187 50.8643 103.017C50.4856 102.847 50.0272 102.761 49.4893 102.761H48.5064V101.33H49.4893C49.9212 101.33 50.3 101.252 50.6257 101.097C50.9553 100.941 51.2128 100.725 51.3984 100.449C51.584 100.169 51.6768 99.8409 51.6768 99.4659C51.6768 99.1061 51.5954 98.7936 51.4325 98.5284C51.2734 98.2595 51.0462 98.0492 50.7507 97.8977C50.459 97.7462 50.1143 97.6705 49.7166 97.6705C49.3378 97.6705 48.9837 97.7405 48.6541 97.8807C48.3284 98.017 48.0632 98.214 47.8587 98.4716C47.6541 98.7254 47.5443 99.0303 47.5291 99.3864H45.8303C45.8492 98.7576 46.0348 98.2045 46.3871 97.7273C46.7431 97.25 47.2128 96.8769 47.7962 96.608C48.3795 96.339 49.0272 96.2045 49.7393 96.2045C50.4856 96.2045 51.1295 96.3504 51.6712 96.642C52.2166 96.9299 52.6371 97.3144 52.9325 97.7955C53.2318 98.2765 53.3795 98.803 53.3757 99.375C53.3795 100.027 53.1977 100.58 52.8303 101.034C52.4666 101.489 51.9818 101.794 51.3757 101.949V102.04C52.1484 102.157 52.7469 102.464 53.1712 102.96C53.5992 103.456 53.8113 104.072 53.8075 104.807C53.8113 105.447 53.6333 106.021 53.2734 106.528C52.9174 107.036 52.4306 107.436 51.8132 107.727C51.1958 108.015 50.4893 108.159 49.6939 108.159Z" fill="black"/>
<g clip-path="url(#clip0_3554_855)">
<path d="M57.487 64.8059L62.7706 5H4L4.06905 5.77608L9.27524 64.8143L9.31943 65.3056L33.163 72H33.5386L57.4373 65.3L57.4815 64.8087L57.487 64.8059ZM33.4364 18.0622H50.5132L49.9995 24.0922L33.1519 31.6632L33.4336 33.0255H49.2428L47.4227 54.1054L33.3756 58.0417L19.3341 54.111L18.4503 44.0163H24.231L24.695 49.1335L24.7391 49.6304L33.2596 51.9195H33.627L42.0535 49.5522L42.095 49.0581L42.8904 39.6055L42.9539 38.835H17.967L17.4422 32.7687L34.867 25.2284L34.5909 23.8605H16.6937L16.1828 18.0538H33.417L33.4364 18.0622Z" fill="black"/>
</g>
<defs>
<clipPath id="clip0_3554_855">
<rect width="58" height="67" fill="white" transform="translate(4 5)"/>
</clipPath>
</defs>
</svg>
