<svg width="67" height="112" viewBox="0 0 67 112" fill="none" xmlns="http://www.w3.org/2000/svg">
<path d="M17.544 108V96.3636H21.8054C22.6312 96.3636 23.3149 96.5 23.8565 96.7727C24.3982 97.0417 24.8035 97.4072 25.0724 97.8693C25.3414 98.3277 25.4759 98.8447 25.4759 99.4205C25.4759 99.9053 25.3868 100.314 25.2088 100.648C25.0308 100.977 24.7921 101.242 24.4929 101.443C24.1974 101.64 23.8717 101.784 23.5156 101.875V101.989C23.902 102.008 24.2789 102.133 24.6463 102.364C25.0175 102.591 25.3243 102.915 25.5668 103.335C25.8092 103.756 25.9304 104.267 25.9304 104.869C25.9304 105.464 25.7902 105.998 25.5099 106.472C25.2334 106.941 24.8054 107.314 24.2259 107.591C23.6463 107.864 22.9058 108 22.0043 108H17.544ZM19.2997 106.494H21.8338C22.6747 106.494 23.277 106.331 23.6406 106.006C24.0043 105.68 24.1861 105.273 24.1861 104.784C24.1861 104.417 24.0933 104.08 23.9077 103.773C23.7221 103.466 23.4569 103.222 23.1122 103.04C22.7713 102.858 22.366 102.767 21.8963 102.767H19.2997V106.494ZM19.2997 101.398H21.652C22.0459 101.398 22.4001 101.322 22.7145 101.17C23.0327 101.019 23.2846 100.807 23.4702 100.534C23.6596 100.258 23.7543 99.9318 23.7543 99.5568C23.7543 99.0758 23.5857 98.6723 23.2486 98.3466C22.9115 98.0208 22.3944 97.858 21.6974 97.858H19.2997V101.398ZM28.0128 108V96.3636H35.3082V97.875H29.7685V101.42H34.9276V102.926H29.7685V106.489H35.3764V108H28.0128ZM37.6534 96.3636H39.7841L43.4886 105.409H43.625L47.3295 96.3636H49.4602V108H47.7898V99.5795H47.6818L44.25 107.983H42.8636L39.4318 99.5739H39.3239V108H37.6534V96.3636Z" fill="black"/>
<g clip-path="url(#clip0_3554_873)">
<path d="M0 10.3319H15.4301V15.8951H0V10.3319ZM0 0H15.4301V5.56321H0V0ZM27.6839 20.5842H0V26.1474H26.6465C29.5639 26.1474 36.3712 26.2267 38.8998 31.2337V28.1343C37.668 23.2066 34.0374 20.5842 27.6836 20.5842H27.6839ZM27.7484 30.9158H0V36.479H26.6465C33.1297 36.479 37.2142 36.7969 38.8998 37.9097V35.4458C37.603 31.5516 32.1572 30.9158 27.7486 30.9158H27.7484ZM27.6839 57.1425H0V51.5793H26.6465C29.5639 51.5793 36.3712 51.4999 38.8998 46.4929V49.5923C37.668 54.52 34.0374 57.1425 27.6836 57.1425H27.6839ZM27.7484 46.8109H0V41.2477H26.6465C33.1297 41.2477 37.2142 40.9297 38.8998 39.817V42.2808C37.603 46.175 32.1572 46.8109 27.7486 46.8109H27.7484ZM45.6424 66.7592H66V63.3415H46.2258C44.4752 63.3415 40.3263 63.2622 38.8351 60.3215V62.2291C39.5482 65.1695 41.7525 66.7592 45.6424 66.7592ZM45.5776 60.4805H65.9353V57.0631H46.2258C42.2709 57.0631 39.8073 56.9042 38.8348 56.189V57.699C39.6126 60.0832 42.9191 60.4805 45.5774 60.4805H45.5776Z" fill="black"/>
</g>
<defs>
<clipPath id="clip0_3554_873">
<rect width="66" height="67" fill="white"/>
</clipPath>
</defs>
</svg>
