<svg width="67" height="112" viewBox="0 0 67 112" fill="none" xmlns="http://www.w3.org/2000/svg">
<path d="M6.47372 108V96.3636H8.2294V101.42H14.0305V96.3636H15.7919V108H14.0305V102.926H8.2294V108H6.47372ZM17.7749 97.875V96.3636H26.7805V97.875H23.1499V108H21.3999V97.875H17.7749ZM28.7706 96.3636H30.9013L34.6058 105.409H34.7422L38.4467 96.3636H40.5774V108H38.907V99.5795H38.799L35.3672 107.983H33.9808L30.549 99.5739H30.4411V108H28.7706V96.3636ZM43.13 108V96.3636H44.8857V106.489H50.1584V108H43.13ZM55.843 108.159C55.1309 108.159 54.4908 108.023 53.9226 107.75C53.3582 107.473 52.9074 107.095 52.5703 106.614C52.2332 106.133 52.0533 105.583 52.0305 104.966H53.7351C53.7768 105.466 53.9983 105.877 54.3999 106.199C54.8014 106.521 55.2824 106.682 55.843 106.682C56.29 106.682 56.6858 106.58 57.0305 106.375C57.379 106.167 57.6518 105.881 57.8487 105.517C58.0495 105.153 58.1499 104.739 58.1499 104.273C58.1499 103.799 58.0476 103.377 57.843 103.006C57.6385 102.634 57.3563 102.343 56.9964 102.131C56.6404 101.919 56.2313 101.811 55.7692 101.807C55.4169 101.807 55.0627 101.867 54.7067 101.989C54.3506 102.11 54.0627 102.269 53.843 102.466L52.2351 102.227L52.8885 96.3636H59.2862V97.8693H54.3487L53.9794 101.125H54.0476C54.2749 100.905 54.576 100.722 54.951 100.574C55.3298 100.426 55.7351 100.352 56.1669 100.352C56.8752 100.352 57.5059 100.521 58.0589 100.858C58.6158 101.195 59.0533 101.655 59.3714 102.239C59.6934 102.818 59.8525 103.485 59.8487 104.239C59.8525 104.992 59.6821 105.665 59.3374 106.256C58.9964 106.847 58.523 107.312 57.9169 107.653C57.3146 107.991 56.6233 108.159 55.843 108.159Z" fill="black"/>
<path d="M3.96136 5L9.33811 65.3L33.4665 72L57.6577 65.2916L63.0428 5H3.96555H3.96136ZM51.3387 24.7231H23.0396L23.7138 32.2983H50.6687L48.6378 55.0029L33.4665 59.2072L18.3161 55.0029L17.2818 43.3868H24.7062L25.2339 49.2912L33.4707 51.5106L33.4874 51.5064L41.7284 49.2828L42.5827 39.6934H16.951L14.9577 17.328H52.0046L51.3429 24.7231H51.3387Z" fill="black"/>
</svg>
