<svg width="90" height="112" viewBox="0 0 90 112" fill="none" xmlns="http://www.w3.org/2000/svg">
<path d="M7.78906 99.4205C7.72846 98.8826 7.47846 98.4659 7.03906 98.1705C6.59967 97.8712 6.04664 97.7216 5.37997 97.7216C4.9027 97.7216 4.48982 97.7973 4.14134 97.9489C3.79285 98.0966 3.52202 98.3011 3.32884 98.5625C3.13944 98.8201 3.04474 99.1136 3.04474 99.4432C3.04474 99.7197 3.10914 99.9583 3.23793 100.159C3.3705 100.36 3.54285 100.528 3.75497 100.665C3.97088 100.797 4.20194 100.909 4.44815 101C4.69437 101.087 4.93111 101.159 5.15838 101.216L6.29474 101.511C6.66596 101.602 7.04664 101.725 7.43679 101.881C7.82694 102.036 8.18868 102.241 8.52202 102.494C8.85535 102.748 9.12429 103.062 9.32884 103.438C9.53717 103.812 9.64134 104.261 9.64134 104.784C9.64134 105.443 9.47088 106.028 9.12997 106.54C8.79285 107.051 8.30232 107.455 7.65838 107.75C7.01823 108.045 6.24361 108.193 5.33452 108.193C4.4633 108.193 3.70952 108.055 3.07315 107.778C2.43679 107.502 1.93868 107.11 1.57884 106.602C1.21899 106.091 1.02012 105.485 0.982244 104.784H2.74361C2.7777 105.205 2.91406 105.555 3.1527 105.835C3.39512 106.112 3.70384 106.318 4.07884 106.455C4.45762 106.587 4.8724 106.653 5.32315 106.653C5.81937 106.653 6.26065 106.576 6.64702 106.42C7.03717 106.261 7.34399 106.042 7.56747 105.761C7.79096 105.477 7.9027 105.146 7.9027 104.767C7.9027 104.422 7.80421 104.14 7.60724 103.92C7.41406 103.701 7.15081 103.519 6.81747 103.375C6.48793 103.231 6.11482 103.104 5.69815 102.994L4.32315 102.619C3.39134 102.366 2.6527 101.992 2.10724 101.5C1.56558 101.008 1.29474 100.356 1.29474 99.5455C1.29474 98.875 1.47656 98.2898 1.8402 97.7898C2.20384 97.2898 2.69626 96.9015 3.31747 96.625C3.93868 96.3447 4.63944 96.2045 5.41974 96.2045C6.20762 96.2045 6.9027 96.3428 7.50497 96.6193C8.11103 96.8958 8.58831 97.2765 8.93679 97.7614C9.28528 98.2424 9.46709 98.7955 9.48224 99.4205H7.78906ZM11.603 111.273V99.2727H13.2621V100.688H13.4041C13.5026 100.506 13.6446 100.295 13.8303 100.057C14.0159 99.8182 14.2734 99.6098 14.603 99.4318C14.9325 99.25 15.3681 99.1591 15.9098 99.1591C16.6143 99.1591 17.2431 99.3371 17.7962 99.6932C18.3492 100.049 18.7829 100.562 19.0973 101.233C19.4155 101.903 19.5746 102.71 19.5746 103.653C19.5746 104.597 19.4174 105.405 19.103 106.08C18.7886 106.75 18.3568 107.267 17.8075 107.631C17.2583 107.991 16.6314 108.17 15.9268 108.17C15.3965 108.17 14.9628 108.081 14.6257 107.903C14.2924 107.725 14.031 107.517 13.8416 107.278C13.6522 107.04 13.5064 106.828 13.4041 106.642H13.3018V111.273H11.603ZM13.2678 103.636C13.2678 104.25 13.3568 104.788 13.5348 105.25C13.7128 105.712 13.9704 106.074 14.3075 106.335C14.6446 106.593 15.0575 106.722 15.5462 106.722C16.0537 106.722 16.478 106.587 16.8189 106.318C17.1598 106.045 17.4174 105.676 17.5916 105.21C17.7696 104.744 17.8587 104.22 17.8587 103.636C17.8587 103.061 17.7715 102.544 17.5973 102.085C17.4268 101.627 17.1693 101.265 16.8246 101C16.4837 100.735 16.0575 100.602 15.5462 100.602C15.0537 100.602 14.6371 100.729 14.2962 100.983C13.959 101.237 13.7034 101.591 13.5291 102.045C13.3549 102.5 13.2678 103.03 13.2678 103.636ZM21.478 108V99.2727H23.12V100.659H23.2109C23.37 100.189 23.6503 99.8201 24.0518 99.5511C24.4571 99.2784 24.9155 99.142 25.4268 99.142C25.5329 99.142 25.6579 99.1458 25.8018 99.1534C25.9496 99.161 26.0651 99.1705 26.1484 99.1818V100.807C26.0803 100.788 25.959 100.767 25.7848 100.744C25.6106 100.718 25.4363 100.705 25.2621 100.705C24.8606 100.705 24.5026 100.79 24.1882 100.96C23.8776 101.127 23.6314 101.36 23.4496 101.659C23.2678 101.955 23.1768 102.292 23.1768 102.67V108H21.478ZM27.6186 108V99.2727H29.3175V108H27.6186ZM28.4766 97.9261C28.1811 97.9261 27.9273 97.8277 27.7152 97.6307C27.5069 97.4299 27.4027 97.1913 27.4027 96.9148C27.4027 96.6345 27.5069 96.3958 27.7152 96.1989C27.9273 95.9981 28.1811 95.8977 28.4766 95.8977C28.772 95.8977 29.0239 95.9981 29.2322 96.1989C29.4444 96.3958 29.5504 96.6345 29.5504 96.9148C29.5504 97.1913 29.4444 97.4299 29.2322 97.6307C29.0239 97.8277 28.772 97.9261 28.4766 97.9261ZM33.3018 102.818V108H31.603V99.2727H33.2337V100.693H33.3416C33.5424 100.231 33.8568 99.8598 34.2848 99.5795C34.7166 99.2992 35.2602 99.1591 35.9155 99.1591C36.5102 99.1591 37.031 99.2841 37.478 99.5341C37.925 99.7803 38.2715 100.148 38.5178 100.636C38.764 101.125 38.8871 101.729 38.8871 102.449V108H37.1882V102.653C37.1882 102.021 37.0234 101.527 36.6939 101.17C36.3643 100.811 35.9117 100.631 35.3359 100.631C34.942 100.631 34.5916 100.716 34.2848 100.886C33.9818 101.057 33.7412 101.307 33.5632 101.636C33.389 101.962 33.3018 102.356 33.3018 102.818ZM44.8246 111.455C44.1314 111.455 43.5348 111.364 43.0348 111.182C42.5386 111 42.1333 110.759 41.8189 110.46C41.5045 110.161 41.2696 109.833 41.1143 109.477L42.5746 108.875C42.6768 109.042 42.8132 109.218 42.9837 109.403C43.1579 109.593 43.3928 109.754 43.6882 109.886C43.9875 110.019 44.3719 110.085 44.8416 110.085C45.4856 110.085 46.0178 109.928 46.4382 109.614C46.8587 109.303 47.0689 108.807 47.0689 108.125V106.409H46.9609C46.8587 106.595 46.7109 106.801 46.5178 107.028C46.3284 107.256 46.067 107.453 45.7337 107.619C45.4003 107.786 44.9666 107.869 44.4325 107.869C43.7431 107.869 43.1219 107.708 42.5689 107.386C42.0196 107.061 41.584 106.581 41.2621 105.949C40.9439 105.312 40.7848 104.53 40.7848 103.602C40.7848 102.674 40.942 101.879 41.2564 101.216C41.5746 100.553 42.0102 100.045 42.5632 99.6932C43.1162 99.3371 43.7431 99.1591 44.4439 99.1591C44.9856 99.1591 45.4231 99.25 45.7564 99.4318C46.0897 99.6098 46.3492 99.8182 46.5348 100.057C46.7242 100.295 46.87 100.506 46.9723 100.688H47.0973V99.2727H48.7621V108.193C48.7621 108.943 48.5878 109.559 48.2393 110.04C47.8909 110.521 47.4193 110.877 46.8246 111.108C46.2337 111.339 45.567 111.455 44.8246 111.455ZM44.8075 106.46C45.2962 106.46 45.709 106.347 46.0462 106.119C46.3871 105.888 46.6446 105.559 46.8189 105.131C46.9969 104.699 47.0859 104.182 47.0859 103.58C47.0859 102.992 46.9988 102.475 46.8246 102.028C46.6503 101.581 46.3946 101.233 46.0575 100.983C45.7204 100.729 45.3037 100.602 44.8075 100.602C44.2962 100.602 43.87 100.735 43.5291 101C43.1882 101.261 42.9306 101.617 42.7564 102.068C42.5859 102.519 42.5007 103.023 42.5007 103.58C42.5007 104.152 42.5878 104.653 42.7621 105.085C42.9363 105.517 43.1939 105.854 43.5348 106.097C43.8795 106.339 44.3037 106.46 44.8075 106.46ZM55.4112 108V96.3636H59.6726C60.4983 96.3636 61.1821 96.5 61.7237 96.7727C62.2654 97.0417 62.6707 97.4072 62.9396 97.8693C63.2086 98.3277 63.343 98.8447 63.343 99.4205C63.343 99.9053 63.254 100.314 63.076 100.648C62.898 100.977 62.6593 101.242 62.3601 101.443C62.0646 101.64 61.7389 101.784 61.3828 101.875V101.989C61.7692 102.008 62.1461 102.133 62.5135 102.364C62.8847 102.591 63.1915 102.915 63.4339 103.335C63.6764 103.756 63.7976 104.267 63.7976 104.869C63.7976 105.464 63.6574 105.998 63.3771 106.472C63.1006 106.941 62.6726 107.314 62.093 107.591C61.5135 107.864 60.773 108 59.8714 108H55.4112ZM57.1669 106.494H59.701C60.5419 106.494 61.1442 106.331 61.5078 106.006C61.8714 105.68 62.0533 105.273 62.0533 104.784C62.0533 104.417 61.9605 104.08 61.7749 103.773C61.5893 103.466 61.3241 103.222 60.9794 103.04C60.6385 102.858 60.2332 102.767 59.7635 102.767H57.1669V106.494ZM57.1669 101.398H59.5192C59.9131 101.398 60.2673 101.322 60.5817 101.17C60.8999 101.019 61.1518 100.807 61.3374 100.534C61.5268 100.258 61.6214 99.9318 61.6214 99.5568C61.6214 99.0758 61.4529 98.6723 61.1158 98.3466C60.7786 98.0208 60.2616 97.858 59.5646 97.858H57.1669V101.398ZM69.4197 108.176C68.6016 108.176 67.8875 107.989 67.2777 107.614C66.6679 107.239 66.1944 106.714 65.8572 106.04C65.5201 105.366 65.3516 104.578 65.3516 103.676C65.3516 102.771 65.5201 101.979 65.8572 101.301C66.1944 100.623 66.6679 100.097 67.2777 99.7216C67.8875 99.3466 68.6016 99.1591 69.4197 99.1591C70.2379 99.1591 70.9519 99.3466 71.5618 99.7216C72.1716 100.097 72.6451 100.623 72.9822 101.301C73.3194 101.979 73.4879 102.771 73.4879 103.676C73.4879 104.578 73.3194 105.366 72.9822 106.04C72.6451 106.714 72.1716 107.239 71.5618 107.614C70.9519 107.989 70.2379 108.176 69.4197 108.176ZM69.4254 106.75C69.9557 106.75 70.3951 106.61 70.7436 106.33C71.0921 106.049 71.3497 105.676 71.5163 105.21C71.6868 104.744 71.772 104.231 71.772 103.67C71.772 103.114 71.6868 102.602 71.5163 102.136C71.3497 101.667 71.0921 101.29 70.7436 101.006C70.3951 100.722 69.9557 100.58 69.4254 100.58C68.8913 100.58 68.4482 100.722 68.0959 101.006C67.7474 101.29 67.4879 101.667 67.3175 102.136C67.1508 102.602 67.0675 103.114 67.0675 103.67C67.0675 104.231 67.1508 104.744 67.3175 105.21C67.4879 105.676 67.7474 106.049 68.0959 106.33C68.4482 106.61 68.8913 106.75 69.4254 106.75ZM79.0604 108.176C78.2422 108.176 77.5282 107.989 76.9183 107.614C76.3085 107.239 75.835 106.714 75.4979 106.04C75.1607 105.366 74.9922 104.578 74.9922 103.676C74.9922 102.771 75.1607 101.979 75.4979 101.301C75.835 100.623 76.3085 100.097 76.9183 99.7216C77.5282 99.3466 78.2422 99.1591 79.0604 99.1591C79.8786 99.1591 80.5926 99.3466 81.2024 99.7216C81.8123 100.097 82.2857 100.623 82.6229 101.301C82.96 101.979 83.1286 102.771 83.1286 103.676C83.1286 104.578 82.96 105.366 82.6229 106.04C82.2857 106.714 81.8123 107.239 81.2024 107.614C80.5926 107.989 79.8786 108.176 79.0604 108.176ZM79.0661 106.75C79.5964 106.75 80.0357 106.61 80.3842 106.33C80.7327 106.049 80.9903 105.676 81.157 105.21C81.3274 104.744 81.4126 104.231 81.4126 103.67C81.4126 103.114 81.3274 102.602 81.157 102.136C80.9903 101.667 80.7327 101.29 80.3842 101.006C80.0357 100.722 79.5964 100.58 79.0661 100.58C78.532 100.58 78.0888 100.722 77.7365 101.006C77.388 101.29 77.1286 101.667 76.9581 102.136C76.7914 102.602 76.7081 103.114 76.7081 103.67C76.7081 104.231 76.7914 104.744 76.9581 105.21C77.1286 105.676 77.388 106.049 77.7365 106.33C78.0888 106.61 78.532 106.75 79.0661 106.75ZM89.0987 99.2727V100.636H84.3317V99.2727H89.0987ZM85.6101 97.1818H87.3089V105.438C87.3089 105.767 87.3582 106.015 87.4567 106.182C87.5552 106.345 87.6821 106.456 87.8374 106.517C87.9964 106.574 88.1688 106.602 88.3544 106.602C88.4908 106.602 88.6101 106.593 88.7124 106.574C88.8146 106.555 88.8942 106.54 88.951 106.528L89.2578 107.932C89.1593 107.97 89.0192 108.008 88.8374 108.045C88.6555 108.087 88.4283 108.11 88.1555 108.114C87.7086 108.121 87.2919 108.042 86.9055 107.875C86.5192 107.708 86.2067 107.451 85.968 107.102C85.7294 106.754 85.6101 106.316 85.6101 105.79V97.1818Z" fill="black"/>
<path d="M69.615 49.176C62.208 59.043 46.392 55.713 36.249 56.19C36.249 56.19 34.452 56.292 32.646 56.589C32.646 56.589 33.33 56.298 34.203 55.995C41.325 53.532 44.691 53.037 49.02 50.814C57.15 46.65 65.244 37.575 66.891 28.149C63.795 37.215 54.381 45.018 45.81 48.186C39.945 50.352 29.334 52.458 29.331 52.458C29.1868 52.3842 29.0438 52.3082 28.902 52.23C21.687 48.72 21.477 33.09 34.584 28.053C40.332 25.845 45.825 27.057 52.038 25.578C58.662 24.003 66.336 19.038 69.453 12.546C72.948 22.92 77.148 39.144 69.615 49.176ZM69.741 9.33603C68.903 11.3453 67.8306 13.2485 66.546 15.006C63.7535 12.128 60.4115 9.84008 56.7181 8.27809C53.0246 6.71611 49.0551 5.91185 45.045 5.91303C28.476 5.91303 15 19.389 15 35.955C14.9981 40.0873 15.8513 44.1753 17.506 47.9618C19.1608 51.7483 21.5812 55.1514 24.615 57.957L25.275 58.539C24.7939 58.0572 24.5239 57.404 24.5244 56.7231C24.5248 56.0422 24.7956 55.3893 25.2773 54.9081C25.7589 54.4268 26.412 54.1565 27.0929 54.1567C27.7738 54.1568 28.4267 54.4274 28.9082 54.9088C29.3897 55.3903 29.6602 56.0433 29.6604 56.7241C29.6605 57.405 29.3902 58.0581 28.909 58.5398C28.4277 59.0214 27.7748 59.2923 27.0939 59.2927C26.4131 59.2931 25.7599 59.0231 25.278 58.542L25.725 58.938C31.1262 63.5044 37.9722 66.0068 45.045 66C60.879 66 73.884 53.676 74.997 38.124C75.819 30.507 73.569 20.835 69.741 9.33603Z" fill="black"/>
</svg>
