<svg width="67" height="112" viewBox="0 0 67 112" fill="none" xmlns="http://www.w3.org/2000/svg">
<path d="M19.7969 99.4205C19.7363 98.8826 19.4863 98.4659 19.0469 98.1705C18.6075 97.8712 18.0545 97.7216 17.3878 97.7216C16.9105 97.7216 16.4976 97.7973 16.1491 97.9489C15.8007 98.0966 15.5298 98.3011 15.3366 98.5625C15.1473 98.8201 15.0526 99.1136 15.0526 99.4432C15.0526 99.7197 15.117 99.9583 15.2457 100.159C15.3783 100.36 15.5507 100.528 15.7628 100.665C15.9787 100.797 16.2098 100.909 16.456 101C16.7022 101.087 16.9389 101.159 17.1662 101.216L18.3026 101.511C18.6738 101.602 19.0545 101.725 19.4446 101.881C19.8348 102.036 20.1965 102.241 20.5298 102.494C20.8632 102.748 21.1321 103.062 21.3366 103.438C21.545 103.812 21.6491 104.261 21.6491 104.784C21.6491 105.443 21.4787 106.028 21.1378 106.54C20.8007 107.051 20.3101 107.455 19.6662 107.75C19.026 108.045 18.2514 108.193 17.3423 108.193C16.4711 108.193 15.7173 108.055 15.081 107.778C14.4446 107.502 13.9465 107.11 13.5866 106.602C13.2268 106.091 13.0279 105.485 12.9901 104.784H14.7514C14.7855 105.205 14.9219 105.555 15.1605 105.835C15.4029 106.112 15.7116 106.318 16.0866 106.455C16.4654 106.587 16.8802 106.653 17.331 106.653C17.8272 106.653 18.2685 106.576 18.6548 106.42C19.045 106.261 19.3518 106.042 19.5753 105.761C19.7988 105.477 19.9105 105.146 19.9105 104.767C19.9105 104.422 19.812 104.14 19.6151 103.92C19.4219 103.701 19.1586 103.519 18.8253 103.375C18.4957 103.231 18.1226 103.104 17.706 102.994L16.331 102.619C15.3991 102.366 14.6605 101.992 14.1151 101.5C13.5734 101.008 13.3026 100.356 13.3026 99.5455C13.3026 98.875 13.4844 98.2898 13.848 97.7898C14.2116 97.2898 14.7041 96.9015 15.3253 96.625C15.9465 96.3447 16.6473 96.2045 17.4276 96.2045C18.2154 96.2045 18.9105 96.3428 19.5128 96.6193C20.1188 96.8958 20.5961 97.2765 20.9446 97.7614C21.2931 98.2424 21.4749 98.7955 21.4901 99.4205H19.7969ZM33.4119 100.148H31.6392C31.571 99.7689 31.4441 99.4356 31.2585 99.1477C31.0729 98.8598 30.8456 98.6155 30.5767 98.4148C30.3078 98.214 30.0066 98.0625 29.6733 97.9602C29.3438 97.858 28.9934 97.8068 28.6222 97.8068C27.9517 97.8068 27.3513 97.9754 26.821 98.3125C26.2945 98.6496 25.8778 99.1439 25.571 99.7955C25.268 100.447 25.1165 101.242 25.1165 102.182C25.1165 103.129 25.268 103.928 25.571 104.58C25.8778 105.231 26.2964 105.723 26.8267 106.057C27.357 106.39 27.9536 106.557 28.6165 106.557C28.9839 106.557 29.3324 106.508 29.6619 106.409C29.9953 106.307 30.2964 106.157 30.5653 105.96C30.8343 105.763 31.0616 105.523 31.2472 105.239C31.4366 104.951 31.5672 104.621 31.6392 104.25L33.4119 104.256C33.3172 104.828 33.1335 105.354 32.8608 105.835C32.5919 106.312 32.2453 106.725 31.821 107.074C31.4006 107.419 30.9195 107.686 30.3778 107.875C29.8362 108.064 29.2453 108.159 28.6051 108.159C27.5975 108.159 26.6998 107.92 25.9119 107.443C25.1241 106.962 24.5028 106.275 24.0483 105.381C23.5975 104.487 23.3722 103.42 23.3722 102.182C23.3722 100.939 23.5994 99.8731 24.054 98.983C24.5085 98.089 25.1297 97.4034 25.9176 96.9261C26.7055 96.4451 27.6013 96.2045 28.6051 96.2045C29.2225 96.2045 29.7983 96.2936 30.3324 96.4716C30.8703 96.6458 31.3532 96.9034 31.7812 97.2443C32.2093 97.5814 32.5634 97.9943 32.8438 98.483C33.1241 98.9678 33.3134 99.5227 33.4119 100.148ZM41.8594 99.4205C41.7988 98.8826 41.5488 98.4659 41.1094 98.1705C40.67 97.8712 40.117 97.7216 39.4503 97.7216C38.973 97.7216 38.5601 97.7973 38.2116 97.9489C37.8632 98.0966 37.5923 98.3011 37.3991 98.5625C37.2098 98.8201 37.1151 99.1136 37.1151 99.4432C37.1151 99.7197 37.1795 99.9583 37.3082 100.159C37.4408 100.36 37.6132 100.528 37.8253 100.665C38.0412 100.797 38.2723 100.909 38.5185 101C38.7647 101.087 39.0014 101.159 39.2287 101.216L40.3651 101.511C40.7363 101.602 41.117 101.725 41.5071 101.881C41.8973 102.036 42.259 102.241 42.5923 102.494C42.9257 102.748 43.1946 103.062 43.3991 103.438C43.6075 103.812 43.7116 104.261 43.7116 104.784C43.7116 105.443 43.5412 106.028 43.2003 106.54C42.8632 107.051 42.3726 107.455 41.7287 107.75C41.0885 108.045 40.3139 108.193 39.4048 108.193C38.5336 108.193 37.7798 108.055 37.1435 107.778C36.5071 107.502 36.009 107.11 35.6491 106.602C35.2893 106.091 35.0904 105.485 35.0526 104.784H36.8139C36.848 105.205 36.9844 105.555 37.223 105.835C37.4654 106.112 37.7741 106.318 38.1491 106.455C38.5279 106.587 38.9427 106.653 39.3935 106.653C39.8897 106.653 40.331 106.576 40.7173 106.42C41.1075 106.261 41.4143 106.042 41.6378 105.761C41.8613 105.477 41.973 105.146 41.973 104.767C41.973 104.422 41.8745 104.14 41.6776 103.92C41.4844 103.701 41.2211 103.519 40.8878 103.375C40.5582 103.231 40.1851 103.104 39.7685 102.994L38.3935 102.619C37.4616 102.366 36.723 101.992 36.1776 101.5C35.6359 101.008 35.3651 100.356 35.3651 99.5455C35.3651 98.875 35.5469 98.2898 35.9105 97.7898C36.2741 97.2898 36.7666 96.9015 37.3878 96.625C38.009 96.3447 38.7098 96.2045 39.4901 96.2045C40.2779 96.2045 40.973 96.3428 41.5753 96.6193C42.1813 96.8958 42.6586 97.2765 43.0071 97.7614C43.3556 98.2424 43.5374 98.7955 43.5526 99.4205H41.8594ZM52.1562 99.4205C52.0956 98.8826 51.8456 98.4659 51.4062 98.1705C50.9669 97.8712 50.4138 97.7216 49.7472 97.7216C49.2699 97.7216 48.857 97.7973 48.5085 97.9489C48.16 98.0966 47.8892 98.3011 47.696 98.5625C47.5066 98.8201 47.4119 99.1136 47.4119 99.4432C47.4119 99.7197 47.4763 99.9583 47.6051 100.159C47.7377 100.36 47.91 100.528 48.1222 100.665C48.3381 100.797 48.5691 100.909 48.8153 101C49.0616 101.087 49.2983 101.159 49.5256 101.216L50.6619 101.511C51.0331 101.602 51.4138 101.725 51.804 101.881C52.1941 102.036 52.5559 102.241 52.8892 102.494C53.2225 102.748 53.4915 103.062 53.696 103.438C53.9044 103.812 54.0085 104.261 54.0085 104.784C54.0085 105.443 53.8381 106.028 53.4972 106.54C53.16 107.051 52.6695 107.455 52.0256 107.75C51.3854 108.045 50.6108 108.193 49.7017 108.193C48.8305 108.193 48.0767 108.055 47.4403 107.778C46.804 107.502 46.3059 107.11 45.946 106.602C45.5862 106.091 45.3873 105.485 45.3494 104.784H47.1108C47.1449 105.205 47.2813 105.555 47.5199 105.835C47.7623 106.112 48.071 106.318 48.446 106.455C48.8248 106.587 49.2396 106.653 49.6903 106.653C50.1866 106.653 50.6278 106.576 51.0142 106.42C51.4044 106.261 51.7112 106.042 51.9347 105.761C52.1581 105.477 52.2699 105.146 52.2699 104.767C52.2699 104.422 52.1714 104.14 51.9744 103.92C51.7813 103.701 51.518 103.519 51.1847 103.375C50.8551 103.231 50.482 103.104 50.0653 102.994L48.6903 102.619C47.7585 102.366 47.0199 101.992 46.4744 101.5C45.9328 101.008 45.6619 100.356 45.6619 99.5455C45.6619 98.875 45.8438 98.2898 46.2074 97.7898C46.571 97.2898 47.0634 96.9015 47.6847 96.625C48.3059 96.3447 49.0066 96.2045 49.7869 96.2045C50.5748 96.2045 51.2699 96.3428 51.8722 96.6193C52.4782 96.8958 52.9555 97.2765 53.304 97.7614C53.6525 98.2424 53.8343 98.7955 53.8494 99.4205H52.1562Z" fill="black"/>
<path d="M33.858 39.1531C32.8509 39.6158 31.7475 40.2188 29.5386 41.4311C28.7011 41.9022 27.8259 42.3733 27.0115 42.8172C26.9549 42.7607 26.8963 42.6895 26.8398 42.6308C22.4701 37.9618 14.3882 34.6641 14.7316 28.3933C14.8593 26.1091 15.6445 20.1126 30.2526 12.8305C42.2749 6.90519 51.8412 8.54669 53.4932 12.1877C55.8675 17.3781 48.3656 27.0366 35.9497 28.4373C34.5755 28.716 33.1563 28.6824 31.7969 28.3388C30.4375 27.9953 29.1727 27.3506 28.096 26.4524C27.4386 25.7385 27.3402 25.6966 27.0973 25.839C26.6974 26.0483 26.9549 26.6953 27.0973 27.0659C27.5709 27.9234 28.2116 28.6772 28.9816 29.2828C29.7515 29.8884 30.6351 30.3335 31.58 30.5918C36.466 31.6479 41.5603 31.1433 46.1441 29.1492C53.6691 26.2368 59.5441 18.1403 57.8231 11.3523C56.0957 4.47016 44.6722 2.20054 33.8643 6.04047C27.0958 8.32139 20.8423 11.912 15.4602 16.6076C9.50562 22.177 8.56343 27.0178 8.94868 29.0445C10.3347 36.2407 20.2549 40.9244 24.2331 44.3938C24.0237 44.5089 23.8478 44.6032 23.6908 44.6932C21.7059 45.6793 14.1391 49.6344 12.2526 53.8178C10.1107 58.558 12.596 61.9562 14.2375 62.4126C16.7112 63.0051 19.3083 62.8104 21.6659 61.8554C24.0236 60.9005 26.0242 59.2331 27.3883 57.0861C28.5468 55.3057 29.2581 53.2719 29.4619 51.1577C29.6656 49.0434 29.3558 46.9112 28.5587 44.9423C29.029 44.5672 29.5306 44.2331 30.0579 43.9436C31.0712 43.3448 32.0365 42.7544 32.8928 42.2979C35.8248 40.9246 39.0246 40.2174 42.2623 40.2272C49.0586 41.027 50.4007 45.2669 50.1432 47.0528C50.0227 47.6865 49.7679 48.287 49.3959 48.8139C49.0239 49.3408 48.5434 49.782 47.9866 50.1076C47.5156 50.407 47.3585 50.5075 47.4004 50.7211C47.4569 51.0352 47.6851 51.0205 48.085 50.964C49.1062 50.6413 50.0058 50.0172 50.6657 49.1738C51.3256 48.3304 51.715 47.3071 51.7826 46.2384C51.992 42.0509 47.9992 37.4572 40.9307 37.4991C38.8142 37.5027 36.7188 37.9202 34.7625 38.7281C34.4485 38.8579 34.1435 38.9975 33.8476 39.1469L33.858 39.1531ZM23.7557 55.566C21.4986 58.022 18.358 58.9495 17.0012 58.1644C15.5356 57.3269 16.1156 53.6942 18.8856 51.0959C20.5262 49.6177 22.2994 48.2938 24.1828 47.1408C24.5115 46.9314 24.9973 46.655 25.5814 46.3033L25.7385 46.2174L26.0818 46.0081C26.5759 47.6644 26.6208 49.4224 26.2121 51.1018C25.8034 52.7813 24.9556 54.3219 23.7557 55.566Z" fill="black"/>
</svg>
