<svg width="72" height="112" viewBox="0 0 72 112" fill="none" xmlns="http://www.w3.org/2000/svg">
<path d="M15.4112 108V96.3636H19.5589C20.4605 96.3636 21.2086 96.5189 21.8033 96.8295C22.4018 97.1402 22.8487 97.5701 23.1442 98.1193C23.4396 98.6648 23.5874 99.2955 23.5874 100.011C23.5874 100.723 23.4377 101.35 23.1385 101.892C22.843 102.43 22.3961 102.848 21.7976 103.148C21.2029 103.447 20.4548 103.597 19.5533 103.597H16.4112V102.085H19.3942C19.9624 102.085 20.4245 102.004 20.7805 101.841C21.1404 101.678 21.4036 101.441 21.5703 101.131C21.737 100.82 21.8203 100.447 21.8203 100.011C21.8203 99.572 21.7351 99.1913 21.5646 98.8693C21.398 98.5473 21.1347 98.3011 20.7749 98.1307C20.4188 97.9564 19.951 97.8693 19.3714 97.8693H17.1669V108H15.4112ZM21.1555 102.75L24.0305 108H22.0305L19.2124 102.75H21.1555ZM29.2393 108.176C28.3795 108.176 27.639 107.992 27.0178 107.625C26.4003 107.254 25.9231 106.733 25.5859 106.062C25.2526 105.388 25.0859 104.598 25.0859 103.693C25.0859 102.799 25.2526 102.011 25.5859 101.33C25.9231 100.648 26.3928 100.116 26.995 99.733C27.6011 99.3504 28.3094 99.1591 29.12 99.1591C29.6125 99.1591 30.0897 99.2405 30.5518 99.4034C31.014 99.5663 31.4287 99.822 31.7962 100.17C32.1636 100.519 32.4534 100.972 32.6655 101.528C32.8776 102.081 32.9837 102.754 32.9837 103.545V104.148H26.0462V102.875H31.3189C31.3189 102.428 31.228 102.032 31.0462 101.688C30.8643 101.339 30.6087 101.064 30.2791 100.864C29.9534 100.663 29.5708 100.562 29.1314 100.562C28.6541 100.562 28.2375 100.68 27.8814 100.915C27.5291 101.146 27.2564 101.449 27.0632 101.824C26.8738 102.195 26.7791 102.598 26.7791 103.034V104.028C26.7791 104.612 26.8814 105.108 27.0859 105.517C27.2943 105.926 27.584 106.239 27.9553 106.455C28.3265 106.667 28.7602 106.773 29.2564 106.773C29.5784 106.773 29.8719 106.727 30.1371 106.636C30.4022 106.542 30.6314 106.402 30.8246 106.216C31.0178 106.03 31.1655 105.801 31.2678 105.528L32.8757 105.818C32.7469 106.292 32.5159 106.706 32.1825 107.062C31.853 107.415 31.4382 107.689 30.9382 107.886C30.442 108.08 29.8757 108.176 29.2393 108.176ZM37.4084 108.193C36.8554 108.193 36.3554 108.091 35.9084 107.886C35.4614 107.678 35.1072 107.377 34.8459 106.983C34.5883 106.589 34.4595 106.106 34.4595 105.534C34.4595 105.042 34.5542 104.636 34.7436 104.318C34.933 104 35.1887 103.748 35.5107 103.562C35.8326 103.377 36.1925 103.237 36.5902 103.142C36.9879 103.047 37.3932 102.975 37.8061 102.926C38.3288 102.866 38.7531 102.816 39.0788 102.778C39.4046 102.737 39.6413 102.67 39.7891 102.58C39.9368 102.489 40.0107 102.341 40.0107 102.136V102.097C40.0107 101.6 39.8705 101.216 39.5902 100.943C39.3137 100.67 38.9008 100.534 38.3516 100.534C37.7796 100.534 37.3288 100.661 36.9993 100.915C36.6735 101.165 36.4482 101.443 36.3232 101.75L34.7266 101.386C34.916 100.856 35.1925 100.428 35.5561 100.102C35.9235 99.7727 36.3459 99.5341 36.8232 99.3864C37.3004 99.2348 37.8023 99.1591 38.3288 99.1591C38.6773 99.1591 39.0466 99.2008 39.4368 99.2841C39.8307 99.3636 40.1982 99.5114 40.5391 99.7273C40.8838 99.9432 41.166 100.252 41.3857 100.653C41.6054 101.051 41.7152 101.568 41.7152 102.205V108H40.0561V106.807H39.9879C39.8781 107.027 39.7133 107.242 39.4936 107.455C39.2739 107.667 38.9917 107.843 38.647 107.983C38.3023 108.123 37.8894 108.193 37.4084 108.193ZM37.7777 106.83C38.2474 106.83 38.6489 106.737 38.9822 106.551C39.3194 106.366 39.575 106.123 39.7493 105.824C39.9273 105.521 40.0163 105.197 40.0163 104.852V103.727C39.9557 103.788 39.8383 103.845 39.6641 103.898C39.4936 103.947 39.2985 103.991 39.0788 104.028C38.8591 104.062 38.6451 104.095 38.4368 104.125C38.2285 104.152 38.0542 104.174 37.9141 104.193C37.5845 104.235 37.2834 104.305 37.0107 104.403C36.7417 104.502 36.5258 104.644 36.3629 104.83C36.2038 105.011 36.1243 105.254 36.1243 105.557C36.1243 105.977 36.2796 106.295 36.5902 106.511C36.9008 106.723 37.2966 106.83 37.7777 106.83ZM47.6541 108.176C46.8094 108.176 46.0821 107.985 45.4723 107.602C44.8662 107.216 44.4003 106.684 44.0746 106.006C43.7488 105.328 43.5859 104.551 43.5859 103.676C43.5859 102.79 43.7526 102.008 44.0859 101.33C44.4193 100.648 44.889 100.116 45.495 99.733C46.1011 99.3504 46.8151 99.1591 47.6371 99.1591C48.3 99.1591 48.8909 99.2822 49.4098 99.5284C49.9287 99.7708 50.3473 100.112 50.6655 100.551C50.9875 100.991 51.1787 101.504 51.2393 102.091H49.5859C49.495 101.682 49.2867 101.33 48.9609 101.034C48.639 100.739 48.2071 100.591 47.6655 100.591C47.192 100.591 46.7772 100.716 46.4212 100.966C46.0689 101.212 45.7943 101.564 45.5973 102.023C45.4003 102.477 45.3018 103.015 45.3018 103.636C45.3018 104.273 45.3984 104.822 45.5916 105.284C45.7848 105.746 46.0575 106.104 46.4098 106.358C46.7659 106.612 47.1844 106.739 47.6655 106.739C47.9875 106.739 48.2791 106.68 48.5405 106.562C48.8056 106.441 49.0272 106.269 49.2053 106.045C49.3871 105.822 49.514 105.553 49.5859 105.239H51.2393C51.1787 105.803 50.995 106.307 50.6882 106.75C50.3814 107.193 49.9704 107.542 49.4553 107.795C48.9439 108.049 48.3435 108.176 47.6541 108.176ZM57.13 99.2727V100.636H52.3629V99.2727H57.13ZM53.6413 97.1818H55.3402V105.438C55.3402 105.767 55.3894 106.015 55.4879 106.182C55.5864 106.345 55.7133 106.456 55.8686 106.517C56.0277 106.574 56.2 106.602 56.3857 106.602C56.522 106.602 56.6413 106.593 56.7436 106.574C56.8459 106.555 56.9254 106.54 56.9822 106.528L57.2891 107.932C57.1906 107.97 57.0504 108.008 56.8686 108.045C56.6868 108.087 56.4595 108.11 56.1868 108.114C55.7398 108.121 55.3232 108.042 54.9368 107.875C54.5504 107.708 54.2379 107.451 53.9993 107.102C53.7607 106.754 53.6413 106.316 53.6413 105.79V97.1818Z" fill="black"/>
<path d="M72 35.067C72 30.297 66.027 25.776 56.868 22.974C58.983 13.641 58.044 6.213 53.904 3.834C52.9008 3.27216 51.7655 2.98936 50.616 3.015V6.285C51.291 6.285 51.834 6.42 52.29 6.669C54.285 7.815 55.152 12.171 54.477 17.778C54.315 19.158 54.051 20.61 53.727 22.092C50.6599 21.3529 47.547 20.8187 44.409 20.493C42.5396 17.9139 40.5 15.4624 38.304 13.155C43.089 8.709 47.58 6.273 50.634 6.273V3C46.596 3 41.313 5.877 35.97 10.866C30.63 5.91 25.344 3.06 21.309 3.06V6.33C24.348 6.33 28.854 8.754 33.639 13.17C31.584 15.33 29.529 17.778 27.576 20.493C24.4315 20.8151 21.3131 21.3544 18.243 22.107C17.9185 20.7024 17.6632 19.2827 17.478 17.853C16.788 12.243 17.64 7.887 19.623 6.729C20.061 6.465 20.634 6.345 21.309 6.345V3.075C20.079 3.075 18.96 3.339 17.994 3.894C13.869 6.273 12.945 13.683 15.072 22.989C5.943 25.809 0 30.312 0 35.067C0 39.837 5.973 44.358 15.132 47.157C13.017 56.493 13.956 63.921 18.096 66.297C19.05 66.855 20.166 67.119 21.396 67.119C25.434 67.119 30.717 64.242 36.06 59.253C41.4 64.212 46.683 67.059 50.721 67.059C51.8793 67.0835 53.0233 66.7998 54.036 66.237C58.161 63.861 59.085 56.451 56.958 47.145C66.057 44.343 72 39.822 72 35.067ZM52.89 25.278C52.32 27.2396 51.6592 29.1736 50.91 31.074C49.6835 28.6883 48.3368 26.3663 46.875 24.117C48.96 24.426 50.97 24.807 52.893 25.278H52.89ZM46.17 40.908C45.0712 42.8264 43.8911 44.6971 42.633 46.515C38.2298 46.9031 33.8011 46.9081 29.397 46.53C26.8708 42.9215 24.6616 39.1013 22.794 35.112C24.6587 31.1133 26.8586 27.2796 29.37 23.652C33.7722 23.2631 38.1998 23.2571 42.603 23.634C43.821 25.38 45.012 27.246 46.155 29.214C47.271 31.134 48.285 33.084 49.209 35.052C48.2747 37.0439 47.2609 38.9974 46.17 40.908ZM50.91 39C51.702 40.965 52.38 42.933 52.935 44.841C51.015 45.312 48.987 45.708 46.89 46.014C48.3457 43.7443 49.6874 41.4034 50.91 39ZM36.03 54.66C34.665 53.25 33.3 51.681 31.95 49.962C33.27 50.022 34.62 50.067 35.985 50.067C37.365 50.067 38.73 50.037 40.065 49.962C38.745 51.681 37.38 53.25 36.03 54.66ZM25.11 46.014C23.0872 45.7209 21.0791 45.3345 19.092 44.856C19.635 42.963 20.31 41.01 21.072 39.06C21.675 40.23 22.308 41.406 22.998 42.582C23.688 43.755 24.39 44.901 25.11 46.014ZM35.955 15.474C37.32 16.884 38.685 18.453 40.035 20.172C38.715 20.112 37.365 20.067 36 20.067C34.62 20.067 33.255 20.097 31.92 20.172C33.24 18.453 34.605 16.884 35.955 15.474ZM25.095 24.12C23.6396 26.3848 22.2979 28.7207 21.075 31.119C20.3046 29.2064 19.6288 27.257 19.05 25.278C20.97 24.822 22.998 24.426 25.095 24.12ZM11.814 42.492C6.618 40.278 3.258 37.371 3.258 35.067C3.258 32.763 6.618 29.841 11.814 27.642C13.074 27.099 14.454 26.613 15.879 26.16C16.716 29.034 17.817 32.028 19.179 35.097C17.8931 37.9836 16.8056 40.9544 15.924 43.989C14.5304 43.5575 13.1587 43.0579 11.814 42.492ZM19.71 63.462C17.715 62.322 16.848 57.96 17.523 52.356C17.685 50.976 17.949 49.521 18.273 48.039C21.147 48.744 24.288 49.287 27.591 49.641C29.4605 52.2201 31.5001 54.6715 33.696 56.979C28.911 61.425 24.42 63.861 21.366 63.861C20.7898 63.8673 20.221 63.7313 19.71 63.465V63.462ZM54.522 52.281C55.212 57.888 54.36 62.247 52.377 63.405C51.939 63.669 51.366 63.786 50.691 63.786C47.652 63.786 43.146 61.365 38.361 56.946C40.5478 54.6482 42.5736 52.2024 44.424 49.626C47.5685 49.3039 50.6869 48.7646 53.757 48.012C54.096 49.494 54.357 50.916 54.522 52.281ZM60.171 42.492C58.911 43.035 57.531 43.521 56.106 43.974C55.2089 40.924 54.1064 37.9381 52.806 35.037C54.156 31.986 55.239 29.007 56.061 26.145C57.4591 26.578 58.8357 27.0775 60.186 27.642C65.382 29.856 68.742 32.763 68.742 35.067C68.727 37.371 65.367 40.293 60.171 42.492Z" fill="black"/>
<path d="M35.9849 41.775C37.7639 41.775 39.4701 41.0683 40.7281 39.8103C41.9861 38.5523 42.6929 36.8461 42.6929 35.067C42.6929 33.2879 41.9861 31.5817 40.7281 30.3237C39.4701 29.0657 37.7639 28.359 35.9849 28.359C34.2058 28.359 32.4996 29.0657 31.2416 30.3237C29.9836 31.5817 29.2769 33.2879 29.2769 35.067C29.2769 36.8461 29.9836 38.5523 31.2416 39.8103C32.4996 41.0683 34.2058 41.775 35.9849 41.775Z" fill="black"/>
</svg>
