<svg width="72" height="112" viewBox="0 0 72 112" fill="none" xmlns="http://www.w3.org/2000/svg">
<path d="M24.0277 96.3636H25.7777V104.614C25.7777 105.36 25.63 105.998 25.3345 106.528C25.0429 107.059 24.6319 107.464 24.1016 107.744C23.5713 108.021 22.95 108.159 22.2379 108.159C21.5826 108.159 20.9936 108.04 20.4709 107.801C19.9519 107.562 19.541 107.216 19.2379 106.761C18.9387 106.303 18.7891 105.746 18.7891 105.091H20.5334C20.5334 105.413 20.6072 105.691 20.755 105.926C20.9065 106.161 21.1129 106.345 21.3743 106.477C21.6394 106.606 21.9425 106.67 22.2834 106.67C22.6546 106.67 22.969 106.593 23.2266 106.438C23.4879 106.278 23.6868 106.045 23.8232 105.739C23.9595 105.432 24.0277 105.057 24.0277 104.614V96.3636ZM30.7365 108.193C30.1835 108.193 29.6835 108.091 29.2365 107.886C28.7895 107.678 28.4354 107.377 28.174 106.983C27.9164 106.589 27.7876 106.106 27.7876 105.534C27.7876 105.042 27.8823 104.636 28.0717 104.318C28.2611 104 28.5168 103.748 28.8388 103.562C29.1607 103.377 29.5206 103.237 29.9183 103.142C30.3161 103.047 30.7214 102.975 31.1342 102.926C31.657 102.866 32.0812 102.816 32.407 102.778C32.7327 102.737 32.9695 102.67 33.1172 102.58C33.2649 102.489 33.3388 102.341 33.3388 102.136V102.097C33.3388 101.6 33.1986 101.216 32.9183 100.943C32.6418 100.67 32.2289 100.534 31.6797 100.534C31.1077 100.534 30.657 100.661 30.3274 100.915C30.0017 101.165 29.7763 101.443 29.6513 101.75L28.0547 101.386C28.2441 100.856 28.5206 100.428 28.8842 100.102C29.2517 99.7727 29.674 99.5341 30.1513 99.3864C30.6286 99.2348 31.1304 99.1591 31.657 99.1591C32.0054 99.1591 32.3748 99.2008 32.7649 99.2841C33.1589 99.3636 33.5263 99.5114 33.8672 99.7273C34.2119 99.9432 34.4941 100.252 34.7138 100.653C34.9335 101.051 35.0433 101.568 35.0433 102.205V108H33.3842V106.807H33.3161C33.2062 107.027 33.0414 107.242 32.8217 107.455C32.602 107.667 32.3198 107.843 31.9751 107.983C31.6304 108.123 31.2176 108.193 30.7365 108.193ZM31.1058 106.83C31.5755 106.83 31.977 106.737 32.3104 106.551C32.6475 106.366 32.9032 106.123 33.0774 105.824C33.2554 105.521 33.3445 105.197 33.3445 104.852V103.727C33.2839 103.788 33.1664 103.845 32.9922 103.898C32.8217 103.947 32.6267 103.991 32.407 104.028C32.1873 104.062 31.9732 104.095 31.7649 104.125C31.5566 104.152 31.3823 104.174 31.2422 104.193C30.9126 104.235 30.6115 104.305 30.3388 104.403C30.0698 104.502 29.8539 104.644 29.6911 104.83C29.532 105.011 29.4524 105.254 29.4524 105.557C29.4524 105.977 29.6077 106.295 29.9183 106.511C30.2289 106.723 30.6248 106.83 31.1058 106.83ZM44.4595 99.2727L41.2947 108H39.4766L36.3061 99.2727H38.13L40.3402 105.989H40.4311L42.6357 99.2727H44.4595ZM48.3459 108.193C47.7929 108.193 47.2929 108.091 46.8459 107.886C46.3989 107.678 46.0447 107.377 45.7834 106.983C45.5258 106.589 45.397 106.106 45.397 105.534C45.397 105.042 45.4917 104.636 45.6811 104.318C45.8705 104 46.1262 103.748 46.4482 103.562C46.7701 103.377 47.13 103.237 47.5277 103.142C47.9254 103.047 48.3307 102.975 48.7436 102.926C49.2663 102.866 49.6906 102.816 50.0163 102.778C50.3421 102.737 50.5788 102.67 50.7266 102.58C50.8743 102.489 50.9482 102.341 50.9482 102.136V102.097C50.9482 101.6 50.808 101.216 50.5277 100.943C50.2512 100.67 49.8383 100.534 49.2891 100.534C48.7171 100.534 48.2663 100.661 47.9368 100.915C47.611 101.165 47.3857 101.443 47.2607 101.75L45.6641 101.386C45.8535 100.856 46.13 100.428 46.4936 100.102C46.861 99.7727 47.2834 99.5341 47.7607 99.3864C48.2379 99.2348 48.7398 99.1591 49.2663 99.1591C49.6148 99.1591 49.9841 99.2008 50.3743 99.2841C50.7682 99.3636 51.1357 99.5114 51.4766 99.7273C51.8213 99.9432 52.1035 100.252 52.3232 100.653C52.5429 101.051 52.6527 101.568 52.6527 102.205V108H50.9936V106.807H50.9254C50.8156 107.027 50.6508 107.242 50.4311 107.455C50.2114 107.667 49.9292 107.843 49.5845 107.983C49.2398 108.123 48.8269 108.193 48.3459 108.193ZM48.7152 106.83C49.1849 106.83 49.5864 106.737 49.9197 106.551C50.2569 106.366 50.5125 106.123 50.6868 105.824C50.8648 105.521 50.9538 105.197 50.9538 104.852V103.727C50.8932 103.788 50.7758 103.845 50.6016 103.898C50.4311 103.947 50.236 103.991 50.0163 104.028C49.7966 104.062 49.5826 104.095 49.3743 104.125C49.166 104.152 48.9917 104.174 48.8516 104.193C48.522 104.235 48.2209 104.305 47.9482 104.403C47.6792 104.502 47.4633 104.644 47.3004 104.83C47.1413 105.011 47.0618 105.254 47.0618 105.557C47.0618 105.977 47.2171 106.295 47.5277 106.511C47.8383 106.723 48.2341 106.83 48.7152 106.83Z" fill="black"/>
<path d="M26.5567 55.6763C26.5567 55.6763 23.8027 57.2805 28.512 57.8183C34.218 58.4753 37.1362 58.383 43.4182 57.186C43.4182 57.186 45.0675 58.23 47.3782 59.1323C33.282 65.169 15.48 58.77 26.5545 55.6763H26.5567ZM24.831 47.8013C24.831 47.8013 21.7372 50.085 26.4487 50.5643C32.5575 51.1965 37.359 51.2573 45.6907 49.653C45.6907 49.653 46.8405 50.814 48.6585 51.4553C31.6192 56.4345 12.6337 51.8423 24.8332 47.8013H24.831ZM39.3502 34.4318C42.8175 38.4278 38.4345 42.0255 38.4345 42.0255C38.4345 42.0255 47.2477 37.4648 43.2045 31.7723C39.4222 26.451 36.5152 23.8163 52.2158 14.7083C52.2158 14.7083 27.5715 20.862 39.348 34.434L39.3502 34.4318ZM57.9847 61.5128C57.9847 61.5128 60.0255 63.1868 55.746 64.4895C47.6122 66.9488 21.8902 67.6868 14.742 64.5818C12.177 63.468 16.992 61.911 18.504 61.5938C20.0857 61.2428 20.988 61.3148 20.988 61.3148C18.1282 59.2988 2.51999 65.2635 13.0567 66.9735C41.8027 71.6378 65.448 64.8765 57.9847 61.5128ZM27.8797 39.6338C27.8797 39.6338 14.7915 42.7388 23.238 43.8638C26.8132 44.343 33.9277 44.2395 40.5607 43.677C45.972 43.218 51.4125 42.246 51.4125 42.246C51.4125 42.246 49.5022 43.065 48.1185 44.0168C34.8277 47.5088 9.15524 45.8798 16.5487 42.3068C22.7947 39.294 27.8797 39.6338 27.8797 39.6338ZM51.3517 52.758C64.8518 45.7268 58.6058 38.988 54.2587 39.9038C53.19 40.113 52.7108 40.3155 52.7108 40.3155C52.7108 40.3155 53.0977 39.6923 53.8605 39.4245C62.4847 36.3893 69.1178 48.3638 51.0817 53.1113C51.0817 53.1 51.2955 52.9245 51.3517 52.7603V52.758ZM43.2067 0C43.2067 0 50.6857 7.47675 36.1057 18.9833C24.4237 28.2173 33.444 33.48 36.1057 39.492C29.286 33.3383 24.282 27.927 27.6345 22.887C32.5665 15.4688 46.2195 11.8823 43.2067 0ZM29.2027 71.7773C42.165 72.5963 62.073 71.3093 62.5568 65.1803C62.5568 65.1803 61.641 67.5 51.831 69.3495C40.77 71.4353 27.117 71.1878 19.0192 69.8535C19.0192 69.8535 20.6842 71.2238 29.2005 71.7773H29.2027Z" fill="black"/>
</svg>
