<svg width="67" height="112" viewBox="0 0 67 112" fill="none" xmlns="http://www.w3.org/2000/svg">
<path d="M29.1534 100.04C29.0436 99.6951 28.8958 99.3864 28.7102 99.1136C28.5284 98.8371 28.3106 98.6023 28.0568 98.4091C27.803 98.2121 27.5133 98.0625 27.1875 97.9602C26.8655 97.858 26.5114 97.8068 26.125 97.8068C25.4697 97.8068 24.8788 97.9754 24.3523 98.3125C23.8258 98.6496 23.4091 99.1439 23.1023 99.7955C22.7992 100.443 22.6477 101.237 22.6477 102.176C22.6477 103.119 22.8011 103.917 23.108 104.568C23.4148 105.22 23.8352 105.714 24.3693 106.051C24.9034 106.388 25.5114 106.557 26.1932 106.557C26.8258 106.557 27.3769 106.428 27.8466 106.17C28.3201 105.913 28.6856 105.549 28.9432 105.08C29.2045 104.606 29.3352 104.049 29.3352 103.409L29.7898 103.494H26.4602V102.045H31.0341V103.369C31.0341 104.347 30.8258 105.195 30.4091 105.915C29.9962 106.631 29.4242 107.184 28.6932 107.574C27.9659 107.964 27.1326 108.159 26.1932 108.159C25.1402 108.159 24.2159 107.917 23.4205 107.432C22.6288 106.947 22.0114 106.259 21.5682 105.369C21.125 104.475 20.9034 103.415 20.9034 102.188C20.9034 101.259 21.0322 100.426 21.2898 99.6875C21.5473 98.9489 21.9091 98.322 22.375 97.8068C22.8447 97.2879 23.3958 96.892 24.0284 96.6193C24.6648 96.3428 25.3598 96.2045 26.1136 96.2045C26.7424 96.2045 27.3277 96.2973 27.8693 96.483C28.4148 96.6686 28.8996 96.9318 29.3239 97.2727C29.7519 97.6136 30.1061 98.0189 30.3864 98.4886C30.6667 98.9545 30.8561 99.4716 30.9545 100.04H29.1534ZM33.6733 108V99.2727H35.3722V108H33.6733ZM34.5312 97.9261C34.2358 97.9261 33.982 97.8277 33.7699 97.6307C33.5616 97.4299 33.4574 97.1913 33.4574 96.9148C33.4574 96.6345 33.5616 96.3958 33.7699 96.1989C33.982 95.9981 34.2358 95.8977 34.5312 95.8977C34.8267 95.8977 35.0786 95.9981 35.2869 96.1989C35.4991 96.3958 35.6051 96.6345 35.6051 96.9148C35.6051 97.1913 35.4991 97.4299 35.2869 97.6307C35.0786 97.8277 34.8267 97.9261 34.5312 97.9261ZM41.7315 99.2727V100.636H36.9645V99.2727H41.7315ZM38.2429 97.1818H39.9418V105.438C39.9418 105.767 39.991 106.015 40.0895 106.182C40.188 106.345 40.3149 106.456 40.4702 106.517C40.6293 106.574 40.8016 106.602 40.9872 106.602C41.1236 106.602 41.2429 106.593 41.3452 106.574C41.4474 106.555 41.527 106.54 41.5838 106.528L41.8906 107.932C41.7921 107.97 41.652 108.008 41.4702 108.045C41.2884 108.087 41.0611 108.11 40.7884 108.114C40.3414 108.121 39.9247 108.042 39.5384 107.875C39.152 107.708 38.8395 107.451 38.6009 107.102C38.3622 106.754 38.2429 106.316 38.2429 105.79V97.1818Z" fill="black"/>
<g clip-path="url(#clip0_3554_782)">
<path d="M65.7364 35.6867L36.4912 6.2703C35.6816 5.4569 34.584 5 33.4396 5C32.2951 5 31.1975 5.4569 30.3879 6.2703L24.3071 12.3807L32.0121 20.1288C36.059 18.7542 39.8905 22.6508 38.5012 26.6979L45.928 34.1663C51.0472 32.3916 55.0777 38.8284 51.2327 42.6919C47.271 46.6757 40.7325 42.2603 42.8577 37.0763L35.9259 30.1147V48.4398C39.7096 50.3257 39.2549 54.7337 37.2838 56.7113C36.3208 57.6792 35.015 58.2229 33.6534 58.2229C32.2919 58.2229 30.986 57.6792 30.023 56.7113C27.3953 54.0644 28.3674 49.6565 31.7055 48.2894V29.7914C28.5948 28.5116 28.0265 25.1684 28.9178 23.0238L21.322 15.3764L1.26385 35.5498C0.45461 36.3638 0 37.4676 0 38.6186C0 39.7695 0.45461 40.8734 1.26385 41.6873L30.518 71.1037C31.3274 71.917 32.4247 72.3738 33.5689 72.3738C34.7131 72.3738 35.8105 71.917 36.6198 71.1037L65.7364 41.8241C66.5456 41.0102 67.0003 39.9064 67.0003 38.7554C67.0003 37.6045 66.5456 36.5006 65.7364 35.6867Z" fill="black"/>
</g>
<defs>
<clipPath id="clip0_3554_782">
<rect width="67" height="77" fill="white"/>
</clipPath>
</defs>
</svg>
