<svg width="81" height="112" viewBox="0 0 81 112" fill="none" xmlns="http://www.w3.org/2000/svg">
<path d="M5.86364 96.3636H7.61364V104.614C7.61364 105.36 7.46591 105.998 7.17045 106.528C6.87879 107.059 6.4678 107.464 5.9375 107.744C5.4072 108.021 4.78598 108.159 4.07386 108.159C3.41856 108.159 2.82955 108.04 2.30682 107.801C1.78788 107.562 1.37689 107.216 1.07386 106.761C0.774621 106.303 0.625 105.746 0.625 105.091H2.36932C2.36932 105.413 2.44318 105.691 2.59091 105.926C2.74242 106.161 2.94886 106.345 3.21023 106.477C3.47538 106.606 3.77841 106.67 4.11932 106.67C4.49053 106.67 4.80492 106.593 5.0625 106.438C5.32386 106.278 5.52273 106.045 5.65909 105.739C5.79545 105.432 5.86364 105.057 5.86364 104.614V96.3636ZM12.5724 108.193C12.0194 108.193 11.5194 108.091 11.0724 107.886C10.6255 107.678 10.2713 107.377 10.0099 106.983C9.75237 106.589 9.62358 106.106 9.62358 105.534C9.62358 105.042 9.71828 104.636 9.90767 104.318C10.0971 104 10.3527 103.748 10.6747 103.562C10.9967 103.377 11.3565 103.237 11.7543 103.142C12.152 103.047 12.5573 102.975 12.9702 102.926C13.4929 102.866 13.9171 102.816 14.2429 102.778C14.5687 102.737 14.8054 102.67 14.9531 102.58C15.1009 102.489 15.1747 102.341 15.1747 102.136V102.097C15.1747 101.6 15.0346 101.216 14.7543 100.943C14.4777 100.67 14.0649 100.534 13.5156 100.534C12.9437 100.534 12.4929 100.661 12.1634 100.915C11.8376 101.165 11.6122 101.443 11.4872 101.75L9.89062 101.386C10.08 100.856 10.3565 100.428 10.7202 100.102C11.0876 99.7727 11.5099 99.5341 11.9872 99.3864C12.4645 99.2348 12.9664 99.1591 13.4929 99.1591C13.8414 99.1591 14.2107 99.2008 14.6009 99.2841C14.9948 99.3636 15.3622 99.5114 15.7031 99.7273C16.0478 99.9432 16.33 100.252 16.5497 100.653C16.7694 101.051 16.8793 101.568 16.8793 102.205V108H15.2202V106.807H15.152C15.0421 107.027 14.8774 107.242 14.6577 107.455C14.438 107.667 14.1558 107.843 13.8111 107.983C13.4664 108.123 13.0535 108.193 12.5724 108.193ZM12.9418 106.83C13.4115 106.83 13.813 106.737 14.1463 106.551C14.4834 106.366 14.7391 106.123 14.9134 105.824C15.0914 105.521 15.1804 105.197 15.1804 104.852V103.727C15.1198 103.788 15.0024 103.845 14.8281 103.898C14.6577 103.947 14.4626 103.991 14.2429 104.028C14.0232 104.062 13.8092 104.095 13.6009 104.125C13.3925 104.152 13.2183 104.174 13.0781 104.193C12.7486 104.235 12.4474 104.305 12.1747 104.403C11.9058 104.502 11.6899 104.644 11.527 104.83C11.3679 105.011 11.2884 105.254 11.2884 105.557C11.2884 105.977 11.4437 106.295 11.7543 106.511C12.0649 106.723 12.4607 106.83 12.9418 106.83ZM26.2955 99.2727L23.1307 108H21.3125L18.142 99.2727H19.9659L22.1761 105.989H22.267L24.4716 99.2727H26.2955ZM30.1818 108.193C29.6288 108.193 29.1288 108.091 28.6818 107.886C28.2348 107.678 27.8807 107.377 27.6193 106.983C27.3617 106.589 27.233 106.106 27.233 105.534C27.233 105.042 27.3277 104.636 27.517 104.318C27.7064 104 27.9621 103.748 28.2841 103.562C28.6061 103.377 28.9659 103.237 29.3636 103.142C29.7614 103.047 30.1667 102.975 30.5795 102.926C31.1023 102.866 31.5265 102.816 31.8523 102.778C32.178 102.737 32.4148 102.67 32.5625 102.58C32.7102 102.489 32.7841 102.341 32.7841 102.136V102.097C32.7841 101.6 32.6439 101.216 32.3636 100.943C32.0871 100.67 31.6742 100.534 31.125 100.534C30.553 100.534 30.1023 100.661 29.7727 100.915C29.447 101.165 29.2216 101.443 29.0966 101.75L27.5 101.386C27.6894 100.856 27.9659 100.428 28.3295 100.102C28.697 99.7727 29.1193 99.5341 29.5966 99.3864C30.0739 99.2348 30.5758 99.1591 31.1023 99.1591C31.4508 99.1591 31.8201 99.2008 32.2102 99.2841C32.6042 99.3636 32.9716 99.5114 33.3125 99.7273C33.6572 99.9432 33.9394 100.252 34.1591 100.653C34.3788 101.051 34.4886 101.568 34.4886 102.205V108H32.8295V106.807H32.7614C32.6515 107.027 32.4867 107.242 32.267 107.455C32.0473 107.667 31.7652 107.843 31.4205 107.983C31.0758 108.123 30.6629 108.193 30.1818 108.193ZM30.5511 106.83C31.0208 106.83 31.4223 106.737 31.7557 106.551C32.0928 106.366 32.3485 106.123 32.5227 105.824C32.7008 105.521 32.7898 105.197 32.7898 104.852V103.727C32.7292 103.788 32.6117 103.845 32.4375 103.898C32.267 103.947 32.072 103.991 31.8523 104.028C31.6326 104.062 31.4186 104.095 31.2102 104.125C31.0019 104.152 30.8277 104.174 30.6875 104.193C30.358 104.235 30.0568 104.305 29.7841 104.403C29.5152 104.502 29.2992 104.644 29.1364 104.83C28.9773 105.011 28.8977 105.254 28.8977 105.557C28.8977 105.977 29.053 106.295 29.3636 106.511C29.6742 106.723 30.0701 106.83 30.5511 106.83ZM43.2344 99.4205C43.1738 98.8826 42.9238 98.4659 42.4844 98.1705C42.045 97.8712 41.492 97.7216 40.8253 97.7216C40.348 97.7216 39.9351 97.7973 39.5866 97.9489C39.2382 98.0966 38.9673 98.3011 38.7741 98.5625C38.5848 98.8201 38.4901 99.1136 38.4901 99.4432C38.4901 99.7197 38.5545 99.9583 38.6832 100.159C38.8158 100.36 38.9882 100.528 39.2003 100.665C39.4162 100.797 39.6473 100.909 39.8935 101C40.1397 101.087 40.3764 101.159 40.6037 101.216L41.7401 101.511C42.1113 101.602 42.492 101.725 42.8821 101.881C43.2723 102.036 43.634 102.241 43.9673 102.494C44.3007 102.748 44.5696 103.062 44.7741 103.438C44.9825 103.812 45.0866 104.261 45.0866 104.784C45.0866 105.443 44.9162 106.028 44.5753 106.54C44.2382 107.051 43.7476 107.455 43.1037 107.75C42.4635 108.045 41.6889 108.193 40.7798 108.193C39.9086 108.193 39.1548 108.055 38.5185 107.778C37.8821 107.502 37.384 107.11 37.0241 106.602C36.6643 106.091 36.4654 105.485 36.4276 104.784H38.1889C38.223 105.205 38.3594 105.555 38.598 105.835C38.8404 106.112 39.1491 106.318 39.5241 106.455C39.9029 106.587 40.3177 106.653 40.7685 106.653C41.2647 106.653 41.706 106.576 42.0923 106.42C42.4825 106.261 42.7893 106.042 43.0128 105.761C43.2363 105.477 43.348 105.146 43.348 104.767C43.348 104.422 43.2495 104.14 43.0526 103.92C42.8594 103.701 42.5961 103.519 42.2628 103.375C41.9332 103.231 41.5601 103.104 41.1435 102.994L39.7685 102.619C38.8366 102.366 38.098 101.992 37.5526 101.5C37.0109 101.008 36.7401 100.356 36.7401 99.5455C36.7401 98.875 36.9219 98.2898 37.2855 97.7898C37.6491 97.2898 38.1416 96.9015 38.7628 96.625C39.384 96.3447 40.0848 96.2045 40.8651 96.2045C41.6529 96.2045 42.348 96.3428 42.9503 96.6193C43.5563 96.8958 44.0336 97.2765 44.3821 97.7614C44.7306 98.2424 44.9124 98.7955 44.9276 99.4205H43.2344ZM50.7244 108.176C49.8797 108.176 49.1525 107.985 48.5426 107.602C47.9366 107.216 47.4706 106.684 47.1449 106.006C46.8191 105.328 46.6562 104.551 46.6562 103.676C46.6562 102.79 46.8229 102.008 47.1562 101.33C47.4896 100.648 47.9593 100.116 48.5653 99.733C49.1714 99.3504 49.8854 99.1591 50.7074 99.1591C51.3703 99.1591 51.9612 99.2822 52.4801 99.5284C52.9991 99.7708 53.4176 100.112 53.7358 100.551C54.0578 100.991 54.2491 101.504 54.3097 102.091H52.6562C52.5653 101.682 52.357 101.33 52.0312 101.034C51.7093 100.739 51.2775 100.591 50.7358 100.591C50.2623 100.591 49.8475 100.716 49.4915 100.966C49.1392 101.212 48.8646 101.564 48.6676 102.023C48.4706 102.477 48.3722 103.015 48.3722 103.636C48.3722 104.273 48.4688 104.822 48.6619 105.284C48.8551 105.746 49.1278 106.104 49.4801 106.358C49.8362 106.612 50.2547 106.739 50.7358 106.739C51.0578 106.739 51.3494 106.68 51.6108 106.562C51.8759 106.441 52.0975 106.269 52.2756 106.045C52.4574 105.822 52.5843 105.553 52.6562 105.239H54.3097C54.2491 105.803 54.0653 106.307 53.7585 106.75C53.4517 107.193 53.0407 107.542 52.5256 107.795C52.0142 108.049 51.4138 108.176 50.7244 108.176ZM56.1264 108V99.2727H57.7685V100.659H57.8594C58.0185 100.189 58.2988 99.8201 58.7003 99.5511C59.1056 99.2784 59.5639 99.142 60.0753 99.142C60.1813 99.142 60.3063 99.1458 60.4503 99.1534C60.598 99.161 60.7135 99.1705 60.7969 99.1818V100.807C60.7287 100.788 60.6075 100.767 60.4332 100.744C60.259 100.718 60.0848 100.705 59.9105 100.705C59.509 100.705 59.151 100.79 58.8366 100.96C58.526 101.127 58.2798 101.36 58.098 101.659C57.9162 101.955 57.8253 102.292 57.8253 102.67V108H56.1264ZM62.267 108V99.2727H63.9659V108H62.267ZM63.125 97.9261C62.8295 97.9261 62.5758 97.8277 62.3636 97.6307C62.1553 97.4299 62.0511 97.1913 62.0511 96.9148C62.0511 96.6345 62.1553 96.3958 62.3636 96.1989C62.5758 95.9981 62.8295 95.8977 63.125 95.8977C63.4205 95.8977 63.6723 95.9981 63.8807 96.1989C64.0928 96.3958 64.1989 96.6345 64.1989 96.9148C64.1989 97.1913 64.0928 97.4299 63.8807 97.6307C63.6723 97.8277 63.4205 97.9261 63.125 97.9261ZM66.2514 111.273V99.2727H67.9105V100.688H68.0526C68.151 100.506 68.2931 100.295 68.4787 100.057C68.6643 99.8182 68.9219 99.6098 69.2514 99.4318C69.581 99.25 70.0166 99.1591 70.5582 99.1591C71.2628 99.1591 71.8916 99.3371 72.4446 99.6932C72.9976 100.049 73.4313 100.562 73.7457 101.233C74.0639 101.903 74.223 102.71 74.223 103.653C74.223 104.597 74.0658 105.405 73.7514 106.08C73.437 106.75 73.0052 107.267 72.456 107.631C71.9067 107.991 71.2798 108.17 70.5753 108.17C70.045 108.17 69.6113 108.081 69.2741 107.903C68.9408 107.725 68.6795 107.517 68.4901 107.278C68.3007 107.04 68.1548 106.828 68.0526 106.642H67.9503V111.273H66.2514ZM67.9162 103.636C67.9162 104.25 68.0052 104.788 68.1832 105.25C68.3613 105.712 68.6188 106.074 68.956 106.335C69.2931 106.593 69.706 106.722 70.1946 106.722C70.7022 106.722 71.1264 106.587 71.4673 106.318C71.8082 106.045 72.0658 105.676 72.2401 105.21C72.4181 104.744 72.5071 104.22 72.5071 103.636C72.5071 103.061 72.42 102.544 72.2457 102.085C72.0753 101.627 71.8177 101.265 71.473 101C71.1321 100.735 70.706 100.602 70.1946 100.602C69.7022 100.602 69.2855 100.729 68.9446 100.983C68.6075 101.237 68.3518 101.591 68.1776 102.045C68.0033 102.5 67.9162 103.03 67.9162 103.636ZM80.2003 99.2727V100.636H75.4332V99.2727H80.2003ZM76.7116 97.1818H78.4105V105.438C78.4105 105.767 78.4598 106.015 78.5582 106.182C78.6567 106.345 78.7836 106.456 78.9389 106.517C79.098 106.574 79.2704 106.602 79.456 106.602C79.5923 106.602 79.7116 106.593 79.8139 106.574C79.9162 106.555 79.9957 106.54 80.0526 106.528L80.3594 107.932C80.2609 107.97 80.1207 108.008 79.9389 108.045C79.7571 108.087 79.5298 108.11 79.2571 108.114C78.8101 108.121 78.3935 108.042 78.0071 107.875C77.6207 107.708 77.3082 107.451 77.0696 107.102C76.831 106.754 76.7116 106.316 76.7116 105.79V97.1818Z" fill="black"/>
<path d="M9 5V68H72V5H9ZM43.2844 54.1344C43.2844 60.2656 39.6844 63.0641 34.4391 63.0641C29.7 63.0641 26.9578 60.6172 25.5516 57.65L30.375 54.7391C31.3031 56.3844 32.1469 57.7766 34.1859 57.7766C36.1266 57.7766 37.3641 57.0172 37.3641 54.05V33.9266H43.2844V54.1344ZM57.2906 63.0641C51.7922 63.0641 48.2344 60.4484 46.5047 57.0172L51.3281 54.2328C52.5938 56.3 54.2531 57.8328 57.1641 57.8328C59.6109 57.8328 61.1859 56.6094 61.1859 54.9078C61.1859 52.8828 59.5828 52.1656 56.8687 50.9703L55.3922 50.3375C51.1172 48.5234 48.2906 46.2313 48.2906 41.4078C48.2906 36.9641 51.6797 33.5891 56.9531 33.5891C60.7219 33.5891 63.4219 34.8969 65.3625 38.3281L60.75 41.2812C59.7375 39.4672 58.6406 38.75 56.9391 38.75C55.2094 38.75 54.1125 39.8469 54.1125 41.2812C54.1125 43.0531 55.2094 43.7703 57.7547 44.8813L59.2313 45.5141C64.2656 47.6656 67.0922 49.8734 67.0922 54.8234C67.0922 60.1391 62.9016 63.0641 57.2906 63.0641Z" fill="black"/>
</svg>
